<svg width="31" height="31" viewBox="0 0 31 31" fill="none" xmlns="http://www.w3.org/2000/svg">
<g clip-path="url(#clip0_30_11685)">
<path d="M17.6704 14.4905C17.6704 13.5609 16.9142 12.8047 15.9846 12.8047C15.0551 12.8047 14.2988 13.5609 14.2988 14.4905C14.2988 15.4201 15.055 16.1763 15.9846 16.1763C16.9142 16.1763 17.6704 15.42 17.6704 14.4905Z" fill="#59D088"/>
<path d="M19.1993 21.1485C19.1993 19.376 17.7574 17.9341 15.9849 17.9341C14.2124 17.9341 12.7705 19.376 12.7705 21.1485V23.4687H15.106V25.3777C14.083 25.7405 13.3482 26.7175 13.3482 27.8633C13.3482 29.3171 14.531 30.5 15.9849 30.5C17.4388 30.5 18.6216 29.3171 18.6216 27.8633C18.6216 26.7175 17.8868 25.7405 16.8638 25.3777V23.4687H19.1993V21.1485Z" fill="#59D088"/>
<path d="M28.0099 19.3982C27.0178 18.8253 25.8042 18.9732 24.9785 19.6777L23.3252 18.7232L25.1862 15.5L23.3252 12.2768L24.9782 11.3224C25.4593 11.7329 26.0719 11.9546 26.696 11.9546C27.143 11.9546 27.5957 11.8409 28.0099 11.6018C29.269 10.8748 29.7019 9.25906 28.975 7.99994C28.2482 6.74082 26.6324 6.30793 25.3732 7.03484C24.381 7.60771 23.9023 8.7326 24.0996 9.79988L22.4463 10.7544L20.5855 7.53125H16.8636V5.62227C17.8866 5.25945 18.6214 4.28252 18.6214 3.13672C18.6214 1.68283 17.4386 0.5 15.9847 0.5C14.5308 0.5 13.348 1.68283 13.348 3.13672C13.348 4.28252 14.0828 5.25945 15.1058 5.62227V7.53125H11.3839L9.52296 10.7545L7.86968 9.8C8.06697 8.73266 7.58831 7.60783 6.59609 7.03496C5.33714 6.30793 3.7213 6.74088 2.99433 8C2.26742 9.25906 2.70031 10.8748 3.95943 11.6018C4.37363 11.841 4.82626 11.9546 5.27339 11.9546C5.8973 11.9546 6.51001 11.7329 6.99107 11.3224L8.64411 12.2768L6.78318 15.5L8.64411 18.7232L6.99089 19.6777C6.16525 18.9732 4.95171 18.8253 3.95943 19.3982C2.70031 20.1252 2.26742 21.7409 2.99433 23C3.48212 23.845 4.37017 24.3178 5.28218 24.3178C5.72919 24.3178 6.18195 24.2042 6.59615 23.965C7.58837 23.3922 8.06702 22.2673 7.86974 21.2L9.52302 20.2455L11.0125 22.8253V21.1485C11.0125 19.3183 12.0072 17.717 13.4836 16.8538C12.9001 16.2366 12.5411 15.4049 12.5411 14.4904C12.5411 12.5916 14.0859 11.0469 15.9847 11.0469C17.8835 11.0469 19.4283 12.5916 19.4283 14.4905C19.4283 15.4049 19.0693 16.2366 18.4858 16.8539C19.9623 17.717 20.9569 19.3183 20.9569 21.1486V22.8254L22.4464 20.2456L24.0997 21.2001C23.9024 22.2674 24.381 23.3922 25.3733 23.9651C25.7875 24.2043 26.2401 24.3179 26.6872 24.3179C27.5991 24.3179 28.4873 23.8449 28.9751 23.0001C29.7019 21.7409 29.2691 20.1252 28.0099 19.3982Z" fill="#59D088"/>
</g>
<defs>
<clipPath id="clip0_30_11685">
<rect width="30" height="30" fill="white" transform="translate(0.984375 0.5)"/>
</clipPath>
</defs>
</svg>
