<svg width="31" height="31" viewBox="0 0 31 31" fill="none" xmlns="http://www.w3.org/2000/svg">
  <g clip-path="url(#clip0_30_11699)">
    <path
      d="M5.86162 14.5818C5.23623 15.2072 5.23623 16.225 5.86162 16.8565C6.487 17.4819 7.50478 17.4819 8.13629 16.8565C12.4649 12.5279 19.5097 12.5279 23.8383 16.8565C24.151 17.1692 24.5618 17.3286 24.9726 17.3286C25.3834 17.3286 25.7942 17.1692 26.1069 16.8565C26.7322 16.2311 26.7322 15.2134 26.1069 14.5818C20.5275 8.99632 11.441 8.99632 5.86162 14.5818Z"
      fill="#FC77FF" />
    <path
      d="M10.2024 18.9228C9.57705 19.5481 9.57705 20.5659 10.2024 21.1974C10.8278 21.8228 11.8456 21.8228 12.4771 21.1974C14.4084 19.26 17.5599 19.26 19.4912 21.1974C19.8039 21.5101 20.2147 21.6695 20.6255 21.6695C21.0363 21.6695 21.4471 21.5101 21.7598 21.1974C22.3851 20.572 22.3851 19.5543 21.7598 18.9289C18.5777 15.7345 13.3907 15.7345 10.2024 18.9228Z"
      fill="#FC77FF" />
    <path
      d="M15.9845 26.8382C17.1663 26.8382 18.1243 25.8802 18.1243 24.6984C18.1243 23.5166 17.1663 22.5586 15.9845 22.5586C14.8027 22.5586 13.8447 23.5166 13.8447 24.6984C13.8447 25.8802 14.8027 26.8382 15.9845 26.8382Z"
      fill="#FC77FF" />
    <path
      d="M30.5153 10.1674C22.5018 2.16003 9.4669 2.16003 1.45341 10.1674C0.828029 10.7928 0.828029 11.8105 1.45341 12.4421C2.0788 13.0674 3.09658 13.0674 3.72809 12.4421C10.4847 5.67934 21.4841 5.67934 28.2468 12.4421C28.5595 12.7548 28.9703 12.9142 29.3811 12.9142C29.7919 12.9142 30.2026 12.7548 30.5153 12.4421C31.1407 11.8167 31.1407 10.7989 30.5153 10.1674Z"
      fill="#FC77FF" />
  </g>
  <defs>
    <clipPath id="clip0_30_11699">
      <rect width="30" height="30" fill="white" transform="translate(0.984375 0.5)" />
    </clipPath>
  </defs>
</svg>