<svg width="31" height="31" viewBox="0 0 31 31" fill="none" xmlns="http://www.w3.org/2000/svg">
<g clip-path="url(#clip0_30_11693)">
<path fill-rule="evenodd" clip-rule="evenodd" d="M15.9844 0.5C24.2689 0.5 30.9844 7.21543 30.9844 15.5C30.9844 23.7846 24.2689 30.5 15.9844 30.5C7.6998 30.5 0.984375 23.7846 0.984375 15.5C0.984375 7.21543 7.6998 0.5 15.9844 0.5ZM8.67773 11.9346V17.2859C8.68242 18.4965 9.6709 19.4703 10.8762 19.465H18.6773C18.8988 19.465 19.077 19.2869 19.077 19.0701V13.7182C19.0723 12.5082 18.0838 11.5344 16.8785 11.5391H9.07793C8.85586 11.5391 8.67773 11.7178 8.67773 11.9346ZM19.5738 14.0223L22.7947 11.6691C23.0742 11.4377 23.291 11.4957 23.291 11.9152V19.0895C23.291 19.5664 23.0262 19.509 22.7947 19.335L19.5738 16.9871V14.0223Z" fill="#2983ED"/>
</g>
<defs>
<clipPath id="clip0_30_11693">
<rect width="30" height="30" fill="white" transform="translate(0.984375 0.5)"/>
</clipPath>
</defs>
</svg>
