<?xml version="1.0" encoding="UTF-8"?>
<svg id="Layer_2" data-name="Layer 2" xmlns="http://www.w3.org/2000/svg" viewBox="0 0 758.16 721.77">
  <defs>
    <style>
      .cls-1 {
        fill: #ed6129;
      }
    </style>
  </defs>
  <g id="Layer_1-2" data-name="Layer 1">
    <path class="cls-1" d="m356.64.65C159,12.09,1.76,177.6.02,375.53c-1.29,135.72,67.75,258.79,183.99,328.58l29.25,17.66,165.8-165.81,165.81,165.81,23.95-14.47c105.86-63.5,177.85-173,188.01-296.07C776,180.25,586.55-12.69,356.64.65m200.36,609.49l-102.68-102.68-13.41-13.42-109.42-109.42c-26.3-26.3-26.3-69.04,0-95.33,13.11-13.11,30.38-19.63,47.59-19.63s34.48,6.51,47.67,19.63c26.22,26.3,26.22,69.04,0,95.33l-22.35,22.35,61.83,61.83,22.35-22.35c14.63-14.62,25.99-31.67,33.65-50.24,7.66-18.49,11.67-38.57,11.67-59.26,0-41.37-16.06-80.25-45.32-109.5-29.25-29.26-68.12-45.32-109.5-45.32s-80.25,16.07-109.5,45.32c-60.32,60.39-60.32,158.6,0,219l47.66,47.59-116.09,116.09c-71.77-54.94-113.67-139.05-113.67-231.05,0-160.8,130.79-291.6,291.59-291.6s291.6,130.8,291.6,291.6c0,92-41.9,176.19-113.67,231.05"/>
  </g>
</svg>