<?xml version="1.0" encoding="UTF-8"?>
<svg id="Layer_2" data-name="Layer 2" xmlns="http://www.w3.org/2000/svg" viewBox="0 0 1438.03 340.37">
  <defs>
    <style>
      .cls-1 {
        fill: #2b242a;
      }

      .cls-2 {
        fill: #ed6129;
      }
    </style>
  </defs>
  <g id="Layer_1-2" data-name="Layer 1">
    <g>
      <g>
        <path class="cls-1" d="m649.09,144.81h-27.92c-4.23,0-8.03-2.45-9.92-6.23-5.96-11.93-14.54-21.65-25.73-29.15-13.1-8.77-28.53-13.15-46.31-13.15-23.96,0-43.41,7.66-58.35,22.97-14.95,15.32-22.41,34.95-22.41,58.91s7.47,43.66,22.41,59.09c14.94,15.44,34.39,23.16,58.35,23.16,17.53,0,32.91-4.45,46.13-13.34,11.3-7.61,19.95-17.39,25.92-29.34,1.89-3.78,5.69-6.23,9.91-6.23h27.92c7.63,0,13.09,7.61,10.4,14.75-7.98,21.17-21.15,38.67-39.52,52.49-22.48,16.92-49.4,25.38-80.77,25.38-37.55,0-68.42-11.86-92.63-35.57-24.21-23.71-36.31-53.84-36.31-90.4s12.1-66.69,36.31-90.4c24.2-23.71,55.08-35.57,92.63-35.57,31.36,0,58.29,8.46,80.77,25.38,18.36,13.83,31.54,31.32,39.52,52.49,2.69,7.14-2.77,14.75-10.4,14.75Z"/>
        <path class="cls-1" d="m716.17,299.31h-27.64c-8.84,0-14.1-9.88-9.15-17.21l67.95-100.71c2.52-3.74,2.52-8.63,0-12.36l-64.18-94.8c-4.96-7.33.29-17.23,9.14-17.23h29.8c3.79,0,7.31,1.94,9.33,5.15l52.23,82.73.71-.16,52.82-82.63c2.03-3.17,5.53-5.09,9.3-5.09h27.93c8.86,0,14.11,9.92,9.13,17.25l-64.45,94.75c-2.54,3.74-2.55,8.65-.01,12.4l68.22,100.68c4.97,7.33-.28,17.23-9.14,17.23h-29.78c-3.79,0-7.32-1.95-9.34-5.15l-56.03-88.95-.82-.05-56.69,89.05c-2.03,3.18-5.54,5.11-9.31,5.11Z"/>
        <path class="cls-1" d="m962.76,299.31h-22.01c-6.1,0-11.04-4.94-11.04-11.04V47.29c0-6.1,4.94-11.04,11.04-11.04h22.01c6.1,0,11.04,4.94,11.04,11.04v240.98c0,6.1-4.94,11.04-11.04,11.04Z"/>
        <path class="cls-1" d="m1205.36,209.27v78.99c0,6.1-4.94,11.04-11.04,11.04h-18.31c-6.1,0-11.04-4.94-11.04-11.04v-23.05h-.74c-5.19,11.86-13.46,21.3-24.83,28.34-11.36,7.04-24.7,10.56-40.01,10.56-23.96,0-45.02-8.46-63.17-25.38-18.15-16.91-27.23-40.57-27.23-70.95,0-27.91,9.2-50.94,27.6-69.1,18.4-18.15,42.05-27.23,70.95-27.23s52.73,8.96,70.77,26.86c18.03,17.91,27.05,41.56,27.05,70.95Zm-136.9,38.35c10,10.25,23.03,15.37,39.09,15.37s29.02-5.12,38.9-15.37c9.88-10.25,14.82-23.53,14.82-39.83s-4.94-29.58-14.82-39.83c-9.88-10.25-22.85-15.37-38.9-15.37s-29.08,5.13-39.09,15.37c-10,10.25-15.01,23.53-15.01,39.83s5,29.58,15.01,39.83Z"/>
        <path class="cls-1" d="m1241.66,206.31V47.29c0-6.1,4.94-11.04,11.04-11.04h22.01c6.1,0,11.04,4.94,11.04,11.04v94.55h.74c5.93-9.39,14.2-16.79,24.83-22.23,10.62-5.43,22.72-8.15,36.31-8.15,23.96,0,45.02,8.47,63.17,25.38,18.15,16.92,27.23,40.57,27.23,70.95,0,27.91-9.2,50.95-27.6,69.1-18.4,18.15-42.05,27.23-70.95,27.23s-52.74-8.95-70.77-26.86c-18.03-17.91-27.05-41.55-27.05-70.95Zm58.91,41.31c9.87,10.25,22.84,15.37,38.9,15.37s29.08-5.12,39.09-15.37c10-10.25,15.01-23.53,15.01-39.83s-5-29.58-15.01-39.83c-10-10.25-23.03-15.37-39.09-15.37s-29.03,5.13-38.9,15.37c-9.88,10.25-14.82,23.53-14.82,39.83s4.94,29.58,14.82,39.83Z"/>
      </g>
      <path class="cls-2" d="m168.18.31C74.98,5.7.83,83.75,0,177.09c-.61,64,31.95,122.04,86.77,154.95l13.79,8.33,78.19-78.19,78.19,78.19,11.29-6.83c49.92-29.95,83.87-81.59,88.66-139.62C365.95,85,276.61-5.98,168.18.31m94.49,287.43l-48.42-48.42-6.33-6.33-51.6-51.6c-12.4-12.4-12.4-32.56,0-44.96,6.18-6.18,14.33-9.26,22.44-9.26s16.26,3.07,22.48,9.26c12.36,12.4,12.36,32.56,0,44.96l-10.54,10.54,29.16,29.16,10.54-10.54c6.9-6.9,12.26-14.94,15.87-23.69,3.61-8.72,5.5-18.19,5.5-27.95,0-19.51-7.57-37.84-21.37-51.64-13.79-13.8-32.12-21.37-51.64-21.37s-37.84,7.58-51.64,21.37c-28.45,28.48-28.45,74.79,0,103.28l22.48,22.44-54.75,54.75c-33.84-25.91-53.6-65.58-53.6-108.96,0-75.83,61.68-137.51,137.51-137.51s137.51,61.68,137.51,137.51c0,43.38-19.76,83.09-53.6,108.96"/>
    </g>
  </g>
</svg>