<svg width="100" height="53" viewBox="0 0 100 53" fill="none" xmlns="http://www.w3.org/2000/svg">
<path d="M5.19165 28.6147H17.3583C17.587 26.9492 18.0238 25.3188 18.6583 23.762H0V51.8035H5.19165V40.3286H16.4611V35.4758H5.19165V28.6147Z" fill="#0336FF"/>
<path d="M24.8277 28.6146C25.2217 26.7982 26.0047 25.0888 27.1227 23.604C28.2407 22.1191 29.6672 20.8942 31.3039 20.0136C32.9407 19.1329 34.7488 18.6174 36.6039 18.5024C38.459 18.3875 40.317 18.676 42.0499 19.348C42.5378 15.3909 44.4566 11.7491 47.4446 9.10937C50.4327 6.46964 54.2833 5.01444 58.2703 5.0182C62.2573 5.02196 66.1052 6.48442 69.0882 9.12977C72.0712 11.7751 73.9833 15.4205 74.4637 19.3785C76.7064 18.4253 79.1503 18.0427 81.5771 18.2647C84.0038 18.4868 86.3378 19.3066 88.3703 20.651C90.4028 21.9953 92.0705 23.8223 93.2245 25.9687C94.3784 28.115 94.9826 30.5138 94.983 32.9507C94.983 37.2951 93.4525 40.5257 91.0942 43.5507H96.8025C98.9073 40.418 100.021 36.7247 99.9997 32.9507C100.007 30.1663 99.4245 27.412 98.2908 24.8689C97.157 22.3258 95.4976 20.0515 93.4218 18.1958C91.3459 16.3401 88.9007 14.945 86.2469 14.1023C83.5931 13.2595 80.7909 12.9883 78.0248 13.3063C76.419 9.35812 73.6681 5.98093 70.1265 3.60954C66.5848 1.23814 62.4145 -0.0189075 58.1522 0.000214969C53.89 0.0193374 49.7311 1.31376 46.2108 3.71684C42.6906 6.11992 39.9702 9.52164 38.3999 13.4841C38.0749 13.4674 37.7527 13.4563 37.4249 13.4563C33.1531 13.4632 29.0237 14.9933 25.7789 17.7717C22.5341 20.5502 20.3865 24.3947 19.7222 28.6146H24.8277Z" fill="#0336FF"/>
<path d="M24.7223 30.7729H19.6807V51.8118H24.7223V30.7729Z" fill="#0336FF"/>
<path d="M26.8833 30.7729H32.3416L37.4222 44.7257H37.5333L42.311 30.7729H47.8443L39.3166 51.8034H35.3722L26.8833 30.7729Z" fill="#0336FF"/>
<path d="M73.9637 51.8035L80.1803 42.3257C79.7326 42.4232 79.2741 42.4615 78.8164 42.4396C74.8359 42.4007 70.5137 38.9146 70.5137 33.3035C70.5137 27.3508 75.0998 23.2202 80.2192 23.2202C85.2608 23.2202 89.9608 27.123 89.9608 33.2646C89.9484 34.456 89.7304 35.6363 89.3164 36.7535C88.888 37.8584 88.3413 38.9136 87.6858 39.9007L79.8775 51.8035H73.9637ZM80.2581 27.9952C77.1859 27.9952 75.5553 30.648 75.5553 32.848C75.5553 35.6924 77.4998 37.7757 80.2581 37.7757C83.2886 37.7757 84.9192 35.123 84.9192 33.0396C84.9192 30.2813 82.9109 28.0063 80.2581 28.0063V27.9952Z" fill="#0336FF"/>
<path d="M62.8969 45.7119C61.9136 47.1008 60.3747 47.873 58.3803 47.873C54.7692 47.873 52.8081 44.9147 52.5803 43.5508H68.9191C69.1135 42.7173 69.215 41.8649 69.2219 41.0091C69.2219 35.7036 65.0136 29.9397 58.3414 29.9397C51.8609 29.9397 47.2748 35.398 47.2748 41.3508C47.263 42.8149 47.5421 44.2668 48.0958 45.6222C48.6496 46.9776 49.467 48.2095 50.5006 49.2465C51.5343 50.2835 52.7636 51.1049 54.1171 51.663C55.4707 52.2212 56.9217 52.505 58.3858 52.498C63.0775 52.498 66.9442 49.3035 68.333 45.7119H62.8969ZM58.3803 34.5647C60.8803 34.5647 63.4969 36.1202 64.0664 39.4952H52.4275C53.3775 35.5869 56.522 34.5647 58.3803 34.5647Z" fill="#0336FF"/>
<path d="M87.1775 50.0786C87.1652 49.7558 87.2193 49.4339 87.3365 49.1329C87.4537 48.8319 87.6315 48.5582 87.8589 48.3287C88.0863 48.0993 88.3584 47.919 88.6583 47.799C88.9582 47.6791 89.2796 47.622 89.6025 47.6314C91.1303 47.6314 92.1025 48.6952 92.1025 50.0452C92.0858 50.6837 91.8215 51.2907 91.3655 51.738C90.9096 52.1852 90.2976 52.4377 89.6589 52.442C89.0202 52.4463 88.4048 52.2022 87.9428 51.7611C87.4808 51.3201 87.2084 50.7168 87.183 50.0786H87.1775ZM91.6691 50.0452C91.6691 48.9008 90.8941 48.0314 89.6053 48.0369C89.0667 48.0424 88.5524 48.2617 88.1756 48.6464C87.7987 49.0311 87.59 49.5498 87.5955 50.0883C87.6011 50.6268 87.8203 51.1411 88.205 51.518C88.5897 51.8949 89.1084 52.1035 89.6469 52.098C90.9247 52.0813 91.6664 51.2064 91.6664 50.0452H91.6691ZM88.7941 48.7814H89.7636C89.8762 48.7723 89.9895 48.7862 90.0965 48.8222C90.2036 48.8583 90.3022 48.9157 90.3864 48.9911C90.4706 49.0664 90.5386 49.1581 90.5862 49.2605C90.6339 49.3629 90.6602 49.474 90.6636 49.5869C90.6724 49.7419 90.6342 49.896 90.5539 50.0288C90.4736 50.1617 90.3549 50.2672 90.2136 50.3314L90.7691 51.3564H90.2775L89.8191 50.4147H89.2442V51.3452H88.8025L88.7941 48.7814ZM89.733 50.0425C89.8502 50.0425 89.9625 49.9959 90.0453 49.9131C90.1282 49.8303 90.1747 49.7179 90.1747 49.6008C90.1747 49.4837 90.1282 49.3713 90.0453 49.2885C89.9625 49.2057 89.8502 49.1591 89.733 49.1591H89.2442V50.0425H89.733Z" fill="#0336FF"/>
</svg>