<svg width="31" height="31" viewBox="0 0 31 31" fill="none" xmlns="http://www.w3.org/2000/svg">
  <g clip-path="url(#clip0_30_11676)">
    <path
      d="M27.8455 11.2059C26.2037 6.08037 21.4112 2.55078 15.9844 2.55078C10.5576 2.55078 5.76526 6.08037 4.12326 11.2059C2.33798 11.5477 0.984375 13.1199 0.984375 15.0031C0.984375 16.8863 2.33798 18.4585 4.12326 18.8002C4.81013 20.9442 6.06326 22.8563 7.77347 24.3586C9.52235 25.8949 11.634 26.8992 13.908 27.2819C14.3129 28.0123 15.0917 28.5078 15.9844 28.5078C17.2929 28.5078 18.3574 27.4435 18.3574 26.135C18.3574 24.8267 17.2929 23.7622 15.9844 23.7622C14.9123 23.7622 14.0045 24.4767 13.7111 25.4548C11.9462 25.0721 10.3097 24.2469 8.93367 23.0382C7.62721 21.8904 6.63089 20.4651 6.01154 18.8701H6.83093V11.1361H6.01154C7.59174 7.0641 11.5406 4.30836 15.9844 4.30836C20.4283 4.30836 24.377 7.0641 25.9572 11.1361H25.1378V18.8701H27.1172C29.2497 18.8701 30.9844 17.1354 30.9844 15.0031C30.9844 13.1199 29.6308 11.5477 27.8455 11.2059Z"
      fill="#FFBC10" />
    <path
      d="M15.984 6.69971C11.4055 6.69971 7.68066 10.4248 7.68066 15.0031C7.68066 19.5814 11.4055 23.3062 15.984 23.3062C20.5626 23.3062 24.2874 19.5814 24.2874 15.0031C24.2874 10.4245 20.5626 6.69971 15.984 6.69971ZM15.984 19.7906C13.3441 19.7906 11.1963 17.643 11.1963 15.0031H12.9541C12.9541 16.6737 14.3134 18.0328 15.984 18.0328C17.6546 18.0328 19.014 16.6737 19.014 15.0031H20.7718C20.7718 17.643 18.624 19.7906 15.984 19.7906Z"
      fill="#FFBC10" />
  </g>
  <defs>
    <clipPath id="clip0_30_11676">
      <rect width="30" height="30" fill="white" transform="translate(0.984375 0.5)" />
    </clipPath>
  </defs>
</svg>